# xmcd
#
# Track frame offsets:
# 150
# 14459
# 29767
# 46276
# 66685
# 80533
# 95341
# 112549
# 127857
# 142706
# 158974
# 170363
#
# Disc length: 2464 seconds
#
#
# Revision: 7
# Processed by: cddbd v1.5.2PL0 Copyright (c) Steve Scherf et al.
# Submitted via: FreeRIP 2.951 
#
DISCID=94099e0c
DTITLE=Estopa - Estopa
DYEAR=1999
DGENRE=Blues
TTITLE0=Tu Calorro
TTITLE1=La Raja de tu falda
TTITLE2=Me falta el aliento
TTITLE3=Tan sólo
TTITLE4=Poquito a poco
TTITLE5=Suma y sigue
TTITLE6=El del Medio de los Chicos
TTITLE7=Como Camarón
TTITLE8=Exilio en el lavabo
TTITLE9=Estopa
TTITLE10=Cacho a cacho
TTITLE11=Bossanova
EXTD=
EXTT0=
EXTT1=
EXTT2=
EXTT3=
EXTT4=
EXTT5=
EXTT6=
EXTT7=
EXTT8=
EXTT9=
EXTT10=
EXTT11=
PLAYORDER=
